<mxfile host="Electron" agent="Mozilla/5.0 (Windows NT 10.0; Win64; x64) AppleWebKit/537.36 (KHTML, like Gecko) draw.io/24.7.17 Chrome/128.0.6613.36 Electron/32.0.1 Safari/537.36" version="24.7.17">
  <diagram name="Page-1" id="w5PruWnpS2OonLCXsZVm">
    <mxGraphModel dx="1418" dy="1633" grid="1" gridSize="10" guides="1" tooltips="1" connect="1" arrows="1" fold="1" page="1" pageScale="1" pageWidth="850" pageHeight="1100" math="0" shadow="0">
      <root>
        <mxCell id="0" />
        <mxCell id="1" parent="0" />
        <mxCell id="E80fngxEaNoV5Jh7innn-17" value="GVE backend core (C#)" style="rounded=0;whiteSpace=wrap;html=1;labelPosition=center;verticalLabelPosition=top;align=center;verticalAlign=bottom;fillColor=none;" vertex="1" parent="1">
          <mxGeometry x="225" y="160" width="160" height="130" as="geometry" />
        </mxCell>
        <mxCell id="E80fngxEaNoV5Jh7innn-12" value="GVE frontend (Angular)" style="rounded=0;whiteSpace=wrap;html=1;labelPosition=center;verticalLabelPosition=top;align=center;verticalAlign=bottom;fillColor=none;" vertex="1" parent="1">
          <mxGeometry x="40" y="60" width="160" height="80" as="geometry" />
        </mxCell>
        <mxCell id="E80fngxEaNoV5Jh7innn-11" value="GVE core (JS)" style="rounded=0;whiteSpace=wrap;html=1;labelPosition=center;verticalLabelPosition=bottom;align=center;verticalAlign=top;fillColor=none;" vertex="1" parent="1">
          <mxGeometry x="40" y="210" width="160" height="130" as="geometry" />
        </mxCell>
        <mxCell id="E80fngxEaNoV5Jh7innn-6" value="Cadmus (Angular - C# - MongoDB)" style="rounded=0;whiteSpace=wrap;html=1;labelPosition=center;verticalLabelPosition=top;align=center;verticalAlign=bottom;fillColor=none;" vertex="1" parent="1">
          <mxGeometry x="412" y="60" width="200" height="380" as="geometry" />
        </mxCell>
        <mxCell id="E80fngxEaNoV5Jh7innn-1" value="API layer" style="rounded=0;whiteSpace=wrap;html=1;fillColor=#008a00;fontColor=#ffffff;strokeColor=#005700;" vertex="1" parent="1">
          <mxGeometry x="432" y="130" width="160" height="40" as="geometry" />
        </mxCell>
        <mxCell id="E80fngxEaNoV5Jh7innn-2" value="GVE editor" style="rounded=0;whiteSpace=wrap;html=1;fillColor=#1ba1e2;fontColor=#ffffff;strokeColor=#006EAF;" vertex="1" parent="1">
          <mxGeometry x="432" y="80" width="160" height="40" as="geometry" />
        </mxCell>
        <mxCell id="E80fngxEaNoV5Jh7innn-3" value="business layer" style="rounded=0;whiteSpace=wrap;html=1;fillColor=#008a00;fontColor=#ffffff;strokeColor=#005700;" vertex="1" parent="1">
          <mxGeometry x="432" y="180" width="160" height="40" as="geometry" />
        </mxCell>
        <mxCell id="E80fngxEaNoV5Jh7innn-4" value="data layer" style="rounded=0;whiteSpace=wrap;html=1;fillColor=#008a00;fontColor=#ffffff;strokeColor=#005700;" vertex="1" parent="1">
          <mxGeometry x="432" y="230" width="160" height="40" as="geometry" />
        </mxCell>
        <mxCell id="E80fngxEaNoV5Jh7innn-5" value="MongoDB" style="shape=cylinder3;whiteSpace=wrap;html=1;boundedLbl=1;backgroundOutline=1;size=15;fillColor=#f0a30a;fontColor=#000000;strokeColor=#BD7000;" vertex="1" parent="1">
          <mxGeometry x="467" y="290" width="90" height="70" as="geometry" />
        </mxCell>
        <mxCell id="E80fngxEaNoV5Jh7innn-7" value="core models" style="rounded=0;whiteSpace=wrap;html=1;fillColor=#1ba1e2;fontColor=#ffffff;strokeColor=#006EAF;" vertex="1" parent="1">
          <mxGeometry x="60" y="280" width="120" height="40" as="geometry" />
        </mxCell>
        <mxCell id="E80fngxEaNoV5Jh7innn-8" value="snapshot view" style="rounded=0;whiteSpace=wrap;html=1;fillColor=#1ba1e2;fontColor=#ffffff;strokeColor=#006EAF;" vertex="1" parent="1">
          <mxGeometry x="60" y="230" width="120" height="40" as="geometry" />
        </mxCell>
        <mxCell id="E80fngxEaNoV5Jh7innn-9" value="snapshot editor" style="rounded=0;whiteSpace=wrap;html=1;fillColor=#1ba1e2;fontColor=#ffffff;strokeColor=#006EAF;" vertex="1" parent="1">
          <mxGeometry x="60" y="80" width="120" height="40" as="geometry" />
        </mxCell>
        <mxCell id="E80fngxEaNoV5Jh7innn-13" value="" style="endArrow=classic;html=1;rounded=0;exitX=0.5;exitY=1;exitDx=0;exitDy=0;entryX=0.5;entryY=0;entryDx=0;entryDy=0;" edge="1" parent="1" source="E80fngxEaNoV5Jh7innn-12" target="E80fngxEaNoV5Jh7innn-11">
          <mxGeometry width="50" height="50" relative="1" as="geometry">
            <mxPoint x="400" y="550" as="sourcePoint" />
            <mxPoint x="450" y="500" as="targetPoint" />
          </mxGeometry>
        </mxCell>
        <mxCell id="E80fngxEaNoV5Jh7innn-14" value="" style="endArrow=classic;html=1;rounded=0;exitX=0;exitY=0.5;exitDx=0;exitDy=0;entryX=1;entryY=0.5;entryDx=0;entryDy=0;" edge="1" parent="1" source="E80fngxEaNoV5Jh7innn-2" target="E80fngxEaNoV5Jh7innn-12">
          <mxGeometry width="50" height="50" relative="1" as="geometry">
            <mxPoint x="400" y="550" as="sourcePoint" />
            <mxPoint x="450" y="500" as="targetPoint" />
          </mxGeometry>
        </mxCell>
        <mxCell id="E80fngxEaNoV5Jh7innn-15" value="snapshot" style="rounded=0;whiteSpace=wrap;html=1;fillColor=#008a00;fontColor=#ffffff;strokeColor=#005700;" vertex="1" parent="1">
          <mxGeometry x="240" y="180" width="130" height="40" as="geometry" />
        </mxCell>
        <mxCell id="E80fngxEaNoV5Jh7innn-16" value="" style="endArrow=classic;html=1;rounded=0;exitX=0;exitY=0.5;exitDx=0;exitDy=0;entryX=1;entryY=0.5;entryDx=0;entryDy=0;" edge="1" parent="1" source="E80fngxEaNoV5Jh7innn-3" target="E80fngxEaNoV5Jh7innn-15">
          <mxGeometry width="50" height="50" relative="1" as="geometry">
            <mxPoint x="430" y="110" as="sourcePoint" />
            <mxPoint x="210" y="110" as="targetPoint" />
          </mxGeometry>
        </mxCell>
        <mxCell id="E80fngxEaNoV5Jh7innn-18" value="exporters" style="rounded=0;whiteSpace=wrap;html=1;fillColor=#008a00;fontColor=#ffffff;strokeColor=#005700;" vertex="1" parent="1">
          <mxGeometry x="240" y="230" width="130" height="40" as="geometry" />
        </mxCell>
        <mxCell id="E80fngxEaNoV5Jh7innn-19" value="outputs&lt;br&gt;(TEI, RDF...)" style="ellipse;shape=cloud;whiteSpace=wrap;html=1;fillColor=#e3c800;fontColor=#000000;strokeColor=#B09500;" vertex="1" parent="1">
          <mxGeometry x="245" y="340" width="120" height="80" as="geometry" />
        </mxCell>
        <mxCell id="E80fngxEaNoV5Jh7innn-20" value="" style="endArrow=classic;html=1;rounded=0;exitX=0.5;exitY=1;exitDx=0;exitDy=0;dashed=1;" edge="1" parent="1" source="E80fngxEaNoV5Jh7innn-18" target="E80fngxEaNoV5Jh7innn-19">
          <mxGeometry width="50" height="50" relative="1" as="geometry">
            <mxPoint x="400" y="450" as="sourcePoint" />
            <mxPoint x="450" y="400" as="targetPoint" />
          </mxGeometry>
        </mxCell>
        <mxCell id="E80fngxEaNoV5Jh7innn-21" value="" style="endArrow=classic;html=1;rounded=0;entryX=0;entryY=0.5;entryDx=0;entryDy=0;exitX=1;exitY=0.5;exitDx=0;exitDy=0;" edge="1" parent="1" source="E80fngxEaNoV5Jh7innn-18" target="E80fngxEaNoV5Jh7innn-3">
          <mxGeometry width="50" height="50" relative="1" as="geometry">
            <mxPoint x="330" y="480" as="sourcePoint" />
            <mxPoint x="303" y="358" as="targetPoint" />
          </mxGeometry>
        </mxCell>
        <mxCell id="E80fngxEaNoV5Jh7innn-22" value="exporters" style="rounded=0;whiteSpace=wrap;html=1;fillColor=#008a00;fontColor=#ffffff;strokeColor=#005700;" vertex="1" parent="1">
          <mxGeometry x="447" y="380" width="130" height="40" as="geometry" />
        </mxCell>
        <mxCell id="E80fngxEaNoV5Jh7innn-23" value="" style="endArrow=classic;html=1;rounded=0;exitX=0;exitY=0.5;exitDx=0;exitDy=0;dashed=1;entryX=0.958;entryY=0.55;entryDx=0;entryDy=0;entryPerimeter=0;" edge="1" parent="1" source="E80fngxEaNoV5Jh7innn-22" target="E80fngxEaNoV5Jh7innn-19">
          <mxGeometry width="50" height="50" relative="1" as="geometry">
            <mxPoint x="315" y="280" as="sourcePoint" />
            <mxPoint x="315" y="350" as="targetPoint" />
          </mxGeometry>
        </mxCell>
      </root>
    </mxGraphModel>
  </diagram>
</mxfile>
